<?xml version="1.0" encoding="UTF-8" standalone="no"?><!DOCTYPE svg PUBLIC "-//W3C//DTD SVG 1.1//EN" "http://www.w3.org/Graphics/SVG/1.1/DTD/svg11.dtd"><svg width="100%" height="100%" viewBox="0 0 372 65" version="1.1" xmlns="http://www.w3.org/2000/svg" xmlns:xlink="http://www.w3.org/1999/xlink" xml:space="preserve" xmlns:serif="http://www.serif.com/" style="fill-rule:evenodd;clip-rule:evenodd;stroke-linejoin:round;stroke-miterlimit:1.41421;"><g><path d="M306.65,64.282l-34.265,0c-1.931,-0.072 -3.669,-1.507 -3.955,-3.404c-0.04,-0.263 -0.035,-0.33 -0.045,-0.596l0,-56.272c0.035,-0.919 0.123,-1.07 0.277,-1.462c0.615,-1.568 2.243,-2.594 4.022,-2.527c1.816,0.204 3.386,1.599 3.657,3.392c0.039,0.264 0.034,0.331 0.044,0.597l0,52.272l30.265,0c0,0 2.904,0.452 3.723,2.539c0.94,2.394 -0.955,5.358 -3.723,5.461Zm-96.392,-28.126l0,24.126c0,0 -0.332,2.673 -2.265,3.604c-2.221,1.07 -5.302,-0.429 -5.691,-3.008c-0.039,-0.263 -0.034,-0.33 -0.044,-0.596l0,-56.272c0.034,-0.919 0.122,-1.07 0.276,-1.462c0.581,-1.481 2.09,-2.477 3.724,-2.538l27.765,0c0,0 0.234,-0.01 0.379,-0.01c8.159,0.078 15.59,7.18 15.671,15.671c0.011,3.313 0.211,6.624 -0.799,9.667c-0.889,2.682 -2.556,5.061 -4.691,6.899c3.289,2.904 5.476,7.116 5.491,11.847l0,16.198c-0.081,3.068 -4.238,5.168 -6.677,2.973c-0.83,-0.748 -1.294,-1.847 -1.323,-2.973c0,-5.431 0.05,-10.863 -0.001,-16.295c-0.064,-4.012 -3.476,-7.648 -7.646,-7.834l-0.065,0.003l-24.104,0Zm-178.113,-36.156c8.066,0.077 15.533,6.948 15.67,15.57c0.032,3.349 0.22,6.698 -0.798,9.768c-1.968,5.93 -7.738,10.381 -13.965,10.776c-0.134,0.008 -0.268,0.015 -0.402,0.02c-0.183,0.007 -0.364,0.015 -0.545,0.022l-24.105,0l0,24.126c0,0 -0.332,2.673 -2.264,3.604c-2.323,1.119 -5.521,-0.579 -5.725,-3.305c-0.007,-0.099 -0.007,-0.199 -0.011,-0.299l0,-56.272c0.072,-1.932 1.507,-3.67 3.404,-3.956c0.263,-0.039 0.331,-0.034 0.596,-0.044l27.766,0c0,0 0.233,-0.01 0.379,-0.01Zm122.954,0.01c11.94,0.114 23.415,8.159 27.384,19.644c1.829,5.292 1.815,11.108 1.564,16.775c-0.535,12.057 -9.331,23.305 -20.983,26.696c-9.704,2.824 -20.79,0.149 -28.144,-6.779c-5.72,-5.389 -9.096,-13.103 -9.172,-21.04c-0.017,-5.389 -0.111,-10.824 1.651,-15.821c3.947,-11.197 15.246,-19.36 27.324,-19.475c0.126,0 0.251,0 0.376,0Zm175.279,35.387c0.002,0.815 0.004,1.631 0.006,2.447c0.08,8.426 7.144,16.181 15.629,16.882c7.635,0.63 15.356,-4.379 17.719,-11.962c0,0 0.705,-1.886 2.054,-2.581c2.731,-1.405 6.708,1.32 5.59,4.94c-0.049,0.162 -0.101,0.322 -0.154,0.482c-2.736,8.261 -10.086,14.851 -18.619,16.644c-8.359,1.757 -17.54,-1.123 -23.402,-7.344c-4.29,-4.554 -6.757,-10.762 -6.816,-17.011c-0.023,-7.191 -0.87,-14.667 1.418,-21.155c3.368,-9.554 12.952,-16.563 23.31,-16.727c0.152,-0.002 0.303,-0.002 0.455,-0.002c10.333,0.08 20.216,7.093 23.584,16.969c0.673,1.975 0.255,4.345 -1.463,5.403c-2.244,1.38 -5.186,-0.133 -6.137,-2.902c-2.519,-7.209 -10.256,-12.155 -17.863,-11.382c-8.194,0.833 -15.223,8.184 -15.305,16.852c-0.002,0.816 -0.004,1.631 -0.006,2.447l20.19,0l0.196,0.005c2.359,0.174 4.277,2.6 3.684,4.967c-0.428,1.712 -2.062,2.983 -3.88,3.028l-20.19,0Zm-260.845,0c0.002,0.815 0.004,1.631 0.006,2.446c0.08,8.399 7.144,16.182 15.628,16.883c7.63,0.63 15.352,-4.363 17.72,-11.963c0,0 1.015,-2.56 3.156,-2.956c2.706,-0.501 5.412,2.326 4.488,5.317c-0.05,0.161 -0.101,0.321 -0.154,0.481c-2.721,8.217 -10.007,14.788 -18.494,16.617c-8.387,1.808 -17.63,-1.058 -23.527,-7.317c-4.29,-4.554 -6.757,-10.763 -6.817,-17.011c-0.022,-7.191 -0.869,-14.667 1.418,-21.155c3.351,-9.506 12.805,-16.495 23.15,-16.725c0.205,-0.003 0.41,-0.005 0.615,-0.004c10.354,0.08 20.216,7.093 23.585,16.969c0.716,2.099 0.143,4.582 -1.718,5.547c-2.259,1.171 -4.979,-0.421 -5.882,-3.045c-2.527,-7.229 -10.34,-12.197 -17.97,-11.372c-8.156,0.881 -15.116,8.266 -15.198,16.841c-0.002,0.816 -0.004,1.631 -0.006,2.447l20.19,0c0.065,0.002 0.131,0.003 0.196,0.005c3.377,0.249 5.336,5.574 1.69,7.523c-0.405,0.216 -0.846,0.361 -1.299,0.429c-0.194,0.028 -0.39,0.038 -0.587,0.043l-20.19,0Zm85.241,-27.387c-10.897,0.104 -20.916,9.429 -21.026,21.026c-0.01,3.127 -0.217,6.296 0.243,9.307c1.106,7.228 6.257,13.697 13.046,16.424c8.423,3.384 18.899,0.568 24.524,-6.589c2.869,-3.65 4.47,-8.243 4.514,-12.923c0.015,-4.492 0.254,-8.996 -1.196,-13.11c-2.83,-8.03 -10.854,-13.938 -19.557,-14.132c-0.182,-0.002 -0.365,-0.004 -0.548,-0.003Zm-122.42,0l-24.354,0l0,20.146l23.787,0c0,0 1.728,0.005 3.147,-0.566c2.826,-1.135 4.832,-4.007 4.881,-7.116c0.025,-2.533 0.343,-5.153 -0.47,-7.371c-1.047,-2.858 -3.891,-4.95 -6.944,-5.095c-0.015,0 -0.031,0.001 -0.047,0.002Zm201.983,20.138c0.553,-0.026 1.79,-0.13 2.854,-0.557c2.827,-1.136 4.834,-4.011 4.882,-7.116c0.024,-2.537 0.34,-5.162 -0.47,-7.373c-1.033,-2.821 -3.792,-4.905 -6.85,-5.089c0,0 -0.077,-0.006 -0.141,-0.003l-24.354,0l0,20.146l23.614,0c0.02,-0.002 0.04,-0.004 0.06,-0.005c0.15,-0.004 0.15,-0.005 0.3,-0.005c0.035,0.001 0.07,0.001 0.105,0.002Z" style="fill-rule:nonzero;"/></g></svg>